<?xml version="1.0" encoding="UTF-8"?>
<svg width="32" height="32" viewBox="0 0 32 32" fill="none" xmlns="http://www.w3.org/2000/svg">
  <!-- California State Outline -->
  <path d="M8.5 4.5C9.2 3.8 10.1 3.2 11.2 2.8C12.5 2.3 13.9 2.1 15.3 2.1C16.8 2.1 18.2 2.4 19.5 2.9C20.8 3.4 21.9 4.1 22.8 5.0C23.2 5.4 23.5 5.9 23.7 6.4C23.9 6.9 24.0 7.5 24.0 8.1C24.0 8.8 23.8 9.4 23.5 10.0C23.2 10.6 22.7 11.1 22.1 11.5L22.0 11.6C22.3 12.2 22.5 12.9 22.5 13.6C22.5 14.4 22.3 15.1 21.9 15.7C21.5 16.3 20.9 16.8 20.2 17.1C20.4 17.6 20.5 18.2 20.5 18.8C20.5 19.6 20.2 20.3 19.7 20.9C19.2 21.5 18.5 21.9 17.7 22.1C17.8 22.5 17.8 22.9 17.7 23.3C17.6 23.8 17.4 24.2 17.1 24.6C16.8 25.0 16.4 25.3 15.9 25.5C15.4 25.7 14.9 25.8 14.4 25.8C13.8 25.8 13.3 25.6 12.8 25.3C12.3 25.0 11.9 24.6 11.6 24.1C11.2 24.3 10.7 24.4 10.2 24.4C9.6 24.4 9.0 24.2 8.5 23.9C8.0 23.6 7.6 23.1 7.3 22.6C6.9 22.8 6.4 22.9 5.9 22.9C5.3 22.9 4.7 22.7 4.2 22.4C3.7 22.1 3.3 21.6 3.0 21.0C2.7 20.4 2.6 19.7 2.7 19.0C2.8 18.3 3.1 17.7 3.5 17.2L3.6 17.1C3.2 16.6 2.9 16.0 2.8 15.3C2.7 14.6 2.8 13.9 3.1 13.3C3.4 12.7 3.9 12.2 4.5 11.9C4.2 11.4 4.0 10.8 4.0 10.2C4.0 9.5 4.2 8.8 4.6 8.2C5.0 7.6 5.6 7.1 6.3 6.8C6.1 6.3 6.0 5.7 6.1 5.1C6.2 4.5 6.5 3.9 6.9 3.4C7.3 2.9 7.8 2.5 8.4 2.3C8.5 2.9 8.5 3.7 8.5 4.5Z" 
        stroke="currentColor" 
        stroke-width="1.5" 
        fill="none"/>
  
  <!-- Power Waveform inside California -->
  <g clip-path="url(#california-clip)">
    <!-- Waveform path representing power demand fluctuations -->
    <path d="M6 16 L8 14 L10 18 L12 12 L14 16 L16 10 L18 15 L20 13 L22 17 L24 11 L26 16" 
          stroke="currentColor" 
          stroke-width="2" 
          fill="none" 
          stroke-linecap="round" 
          stroke-linejoin="round"/>
    
    <!-- Additional waveform for depth -->
    <path d="M6 18 L8 16 L10 20 L12 14 L14 18 L16 12 L18 17 L20 15 L22 19 L24 13 L26 18" 
          stroke="currentColor" 
          stroke-width="1.5" 
          fill="none" 
          stroke-linecap="round" 
          stroke-linejoin="round"
          opacity="0.6"/>
  </g>
  
  <!-- Clipping path to keep waveform inside California outline -->
  <defs>
    <clipPath id="california-clip">
      <path d="M8.5 4.5C9.2 3.8 10.1 3.2 11.2 2.8C12.5 2.3 13.9 2.1 15.3 2.1C16.8 2.1 18.2 2.4 19.5 2.9C20.8 3.4 21.9 4.1 22.8 5.0C23.2 5.4 23.5 5.9 23.7 6.4C23.9 6.9 24.0 7.5 24.0 8.1C24.0 8.8 23.8 9.4 23.5 10.0C23.2 10.6 22.7 11.1 22.1 11.5L22.0 11.6C22.3 12.2 22.5 12.9 22.5 13.6C22.5 14.4 22.3 15.1 21.9 15.7C21.5 16.3 20.9 16.8 20.2 17.1C20.4 17.6 20.5 18.2 20.5 18.8C20.5 19.6 20.2 20.3 19.7 20.9C19.2 21.5 18.5 21.9 17.7 22.1C17.8 22.5 17.8 22.9 17.7 23.3C17.6 23.8 17.4 24.2 17.1 24.6C16.8 25.0 16.4 25.3 15.9 25.5C15.4 25.7 14.9 25.8 14.4 25.8C13.8 25.8 13.3 25.6 12.8 25.3C12.3 25.0 11.9 24.6 11.6 24.1C11.2 24.3 10.7 24.4 10.2 24.4C9.6 24.4 9.0 24.2 8.5 23.9C8.0 23.6 7.6 23.1 7.3 22.6C6.9 22.8 6.4 22.9 5.9 22.9C5.3 22.9 4.7 22.7 4.2 22.4C3.7 22.1 3.3 21.6 3.0 21.0C2.7 20.4 2.6 19.7 2.7 19.0C2.8 18.3 3.1 17.7 3.5 17.2L3.6 17.1C3.2 16.6 2.9 16.0 2.8 15.3C2.7 14.6 2.8 13.9 3.1 13.3C3.4 12.7 3.9 12.2 4.5 11.9C4.2 11.4 4.0 10.8 4.0 10.2C4.0 9.5 4.2 8.8 4.6 8.2C5.0 7.6 5.6 7.1 6.3 6.8C6.1 6.3 6.0 5.7 6.1 5.1C6.2 4.5 6.5 3.9 6.9 3.4C7.3 2.9 7.8 2.5 8.4 2.3C8.5 2.9 8.5 3.7 8.5 4.5Z"/>
    </clipPath>
  </defs>
</svg>
